<?xml version="1.0" encoding="UTF-8"?>
<svg version="1.1" xmlns="http://www.w3.org/2000/svg" width="984" height="466">
<path d="M0 0 C324.72 0 649.44 0 984 0 C984 153.78 984 307.56 984 466 C659.28 466 334.56 466 0 466 C0 312.22 0 158.44 0 0 Z " fill="none" transform="translate(0,0)"/>
<path d="M0 0 C272.58 0 545.16 0 826 0 C826 90.42 826 180.84 826 274 C731.29 274 636.58 274 539 274 C539 269.71 539 265.42 539 261 C629.42 261 719.84 261 813 261 C813 179.16 813 97.32 813 13 C549 13 285 13 13 13 C13 94.84 13 176.68 13 261 C103.75 261 194.5 261 288 261 C288 265.62 288 270.24 288 275 C192.96 275 97.92 275 0 275 C0 184.25 0 93.5 0 0 Z " fill="#AF9A82" transform="translate(77,80)"/>
<path d="M0 0 C6.51033938 -0.0765439 13.02056118 -0.12880571 19.53125 -0.16479492 C21.74255714 -0.17981037 23.95383485 -0.20022891 26.16503906 -0.22631836 C29.35749609 -0.26302154 32.54955675 -0.2797993 35.7421875 -0.29296875 C36.71864227 -0.30845261 37.69509705 -0.32393646 38.70114136 -0.33988953 C48.87512947 -0.34234146 57.50741639 1.83619027 65 9 C69.42208531 14.30650237 70.42539871 19.25235779 70.3359375 26.015625 C69.67644926 31.87433449 67.33571674 36.7678836 63.0625 40.8515625 C59.55893833 43.54558909 55.78649499 45.72974049 52 48 C54.69255188 52.11383463 57.39474274 56.22111599 60.10546875 60.32299805 C61.02341066 61.71485639 61.9388453 63.10837207 62.8515625 64.50366211 C71.91071961 79.23536442 71.91071961 79.23536442 85 90 C88.19395026 90.71401232 88.19395026 90.71401232 91 91 C91 92.32 91 93.64 91 95 C71.95116776 96.61073773 71.95116776 96.61073773 65.88671875 93.30078125 C63.51858772 90.6815504 61.78726898 88.04553657 60 85 C59.23749606 83.88139439 58.46487677 82.76963367 57.68359375 81.6640625 C53.88096878 76.21014933 50.34639139 70.68436141 47.15625 64.84765625 C46.66229736 63.98068115 46.16834473 63.11370605 45.65942383 62.22045898 C44.70047682 60.52953749 43.77865142 58.81684704 42.90112305 57.08227539 C41.43720577 54.54311706 40.29956205 52.83149008 38 51 C33.63463985 49.99615547 29.46575412 49.85635856 25 50 C25.09366362 54.91162893 25.19978596 59.82277241 25.31738281 64.73388672 C25.35562857 66.40405941 25.39048915 68.07431323 25.421875 69.74462891 C25.46762161 72.14775557 25.52559925 74.55032584 25.5859375 76.953125 C25.59748871 77.69806213 25.60903992 78.44299927 25.62094116 79.21051025 C25.75712826 84.42275943 25.75712826 84.42275943 28 89 C30.40404738 89.91599427 30.40404738 89.91599427 33.125 90.25 C34.03507813 90.39953125 34.94515625 90.5490625 35.8828125 90.703125 C36.58148437 90.80109375 37.28015625 90.8990625 38 91 C38 92.32 38 93.64 38 95 C25.46 95 12.92 95 0 95 C0 94.01 0 93.02 0 92 C0.62648438 91.81824219 1.25296875 91.63648438 1.8984375 91.44921875 C2.71570313 91.19785156 3.53296875 90.94648438 4.375 90.6875 C5.18710937 90.44386719 5.99921875 90.20023437 6.8359375 89.94921875 C9.33184629 89.08631815 9.33184629 89.08631815 11 86 C11.19905 83.47900291 11.28340857 81.06826145 11.2746582 78.546875 C11.27976913 77.79047729 11.28488007 77.03407959 11.29014587 76.25476074 C11.30405247 73.75309348 11.30308453 71.25170133 11.30078125 68.75 C11.30466721 67.01269427 11.30900167 65.27538948 11.31376648 63.53808594 C11.3212307 59.89645304 11.32093568 56.2549171 11.31567383 52.61328125 C11.30987477 47.94229003 11.32681961 43.27169477 11.3500185 38.60076904 C11.36473531 35.01315992 11.36563043 31.42564665 11.36250877 27.8380127 C11.36302289 26.1155926 11.36827744 24.39316726 11.37832069 22.67077637 C11.39063013 20.26462903 11.38392738 17.85925948 11.37231445 15.453125 C11.37995819 14.73926636 11.38760193 14.02540771 11.39547729 13.28991699 C11.36438775 10.38191746 11.33614722 8.46579366 9.60441589 6.06616211 C7.62367986 4.74992876 6.17332342 4.50601012 3.8125 4.3125 C1.9253125 4.1578125 1.9253125 4.1578125 0 4 C0 2.68 0 1.36 0 0 Z " fill="#AF9982" transform="translate(647,170)"/>
<path d="M0 0 C6.51033938 -0.0765439 13.02056118 -0.12880571 19.53125 -0.16479492 C21.74255714 -0.17981037 23.95383485 -0.20022891 26.16503906 -0.22631836 C29.35749609 -0.26302154 32.54955675 -0.2797993 35.7421875 -0.29296875 C36.71864227 -0.30845261 37.69509705 -0.32393646 38.70114136 -0.33988953 C48.87512947 -0.34234146 57.50741639 1.83619027 65 9 C69.42208531 14.30650237 70.42539871 19.25235779 70.3359375 26.015625 C69.67644926 31.87433449 67.33571674 36.7678836 63.0625 40.8515625 C59.55893833 43.54558909 55.78649499 45.72974049 52 48 C54.69255188 52.11383463 57.39474274 56.22111599 60.10546875 60.32299805 C61.02341066 61.71485639 61.9388453 63.10837207 62.8515625 64.50366211 C71.91071961 79.23536442 71.91071961 79.23536442 85 90 C88.19395026 90.71401232 88.19395026 90.71401232 91 91 C91 92.32 91 93.64 91 95 C71.95116776 96.61073773 71.95116776 96.61073773 65.88671875 93.30078125 C63.51858772 90.6815504 61.78726898 88.04553657 60 85 C59.23749606 83.88139439 58.46487677 82.76963367 57.68359375 81.6640625 C53.88096878 76.21014933 50.34639139 70.68436141 47.15625 64.84765625 C46.66229736 63.98068115 46.16834473 63.11370605 45.65942383 62.22045898 C44.70047682 60.52953749 43.77865142 58.81684704 42.90112305 57.08227539 C41.43720577 54.54311706 40.29956205 52.83149008 38 51 C33.63463985 49.99615547 29.46575412 49.85635856 25 50 C25.09366362 54.91162893 25.19978596 59.82277241 25.31738281 64.73388672 C25.35562857 66.40405941 25.39048915 68.07431323 25.421875 69.74462891 C25.46762161 72.14775557 25.52559925 74.55032584 25.5859375 76.953125 C25.59748871 77.69806213 25.60903992 78.44299927 25.62094116 79.21051025 C25.75712826 84.42275943 25.75712826 84.42275943 28 89 C30.40404738 89.91599427 30.40404738 89.91599427 33.125 90.25 C34.03507812 90.39953125 34.94515625 90.5490625 35.8828125 90.703125 C36.58148438 90.80109375 37.28015625 90.8990625 38 91 C38 92.32 38 93.64 38 95 C25.46 95 12.92 95 0 95 C0 94.01 0 93.02 0 92 C0.62648438 91.81824219 1.25296875 91.63648438 1.8984375 91.44921875 C2.71570313 91.19785156 3.53296875 90.94648438 4.375 90.6875 C5.18710937 90.44386719 5.99921875 90.20023437 6.8359375 89.94921875 C9.33184629 89.08631815 9.33184629 89.08631815 11 86 C11.19905 83.47900291 11.28340857 81.06826145 11.2746582 78.546875 C11.27976913 77.79047729 11.28488007 77.03407959 11.29014587 76.25476074 C11.30405247 73.75309348 11.30308453 71.25170133 11.30078125 68.75 C11.30466721 67.01269427 11.30900167 65.27538948 11.31376648 63.53808594 C11.3212307 59.89645304 11.32093568 56.2549171 11.31567383 52.61328125 C11.30987477 47.94229003 11.32681961 43.27169477 11.3500185 38.60076904 C11.36473531 35.01315992 11.36563043 31.42564665 11.36250877 27.8380127 C11.36302289 26.1155926 11.36827744 24.39316726 11.37832069 22.67077637 C11.39063013 20.26462903 11.38392738 17.85925948 11.37231445 15.453125 C11.37995819 14.73926636 11.38760193 14.02540771 11.39547729 13.28991699 C11.36438775 10.38191746 11.33614722 8.46579366 9.60441589 6.06616211 C7.62367986 4.74992876 6.17332342 4.50601012 3.8125 4.3125 C1.9253125 4.1578125 1.9253125 4.1578125 0 4 C0 2.68 0 1.36 0 0 Z " fill="#AF9982" transform="translate(347,170)"/>
<path d="M0 0 C11.10797294 7.16473057 17.94530509 17.98695684 22.0859375 30.4609375 C23.57903947 38.85001557 23.10019892 48.48800901 20.46484375 56.58984375 C20.20832031 57.38648438 19.95179688 58.183125 19.6875 59.00390625 C15.01073138 71.97039778 6.53949403 80.96310898 -5.53515625 87.46484375 C-18.01088979 93.24533183 -31.63085858 92.84842268 -44.53515625 88.58984375 C-55.08921259 83.74313118 -64.01681472 75.81312965 -69.53515625 65.58984375 C-70.02242187 64.69136719 -70.5096875 63.79289062 -71.01171875 62.8671875 C-76.16933475 51.70195733 -76.84508666 37.1831549 -72.97265625 25.46484375 C-66.28869948 10.63775654 -56.98549129 1.60535239 -42.53515625 -5.41015625 C-28.21620134 -10.38090207 -12.8237768 -7.52499958 0 0 Z M-49.53515625 5.58984375 C-60.00809726 18.59808948 -60.3891327 32.52559784 -59.53515625 48.58984375 C-57.97831063 60.82031741 -52.24965024 73.59894842 -42.3671875 81.2734375 C-35.72445752 85.91333432 -29.79749522 88.51276459 -21.53515625 87.58984375 C-13.11877588 85.99502008 -7.14189803 82.39696007 -1.28515625 76.21484375 C0.99629392 72.7926685 2.83058043 69.36277264 4.46484375 65.58984375 C4.76777344 64.91824219 5.07070313 64.24664062 5.3828125 63.5546875 C10.66887146 49.48334744 8.17971573 33.07030693 2.46484375 19.58984375 C-2.24674169 9.63579 -9.15081484 1.66529481 -19.53515625 -2.41015625 C-30.32842569 -6.00791273 -41.60583791 -2.12200383 -49.53515625 5.58984375 Z " fill="#AF9A83" transform="translate(300.53515625,175.41015625)"/>
<path d="M0 0 C1.06469727 2.07397461 1.06469727 2.07397461 2.06640625 4.90234375 C2.46077881 5.99643555 2.85515137 7.09052734 3.26147461 8.21777344 C3.69081299 9.4452832 4.12015137 10.67279297 4.5625 11.9375 C5.02562451 13.23380971 5.48993811 14.52969511 5.95532227 15.82519531 C7.0208705 18.79719323 8.07932133 21.7716117 9.13378906 24.74755859 C12.46485778 34.13822189 15.85175853 43.50897617 19.22702026 52.88381958 C20.4223801 56.2079536 21.61408796 59.53337662 22.80493164 62.85913086 C23.55613678 64.95296782 24.30735685 67.04679943 25.05859375 69.140625 C25.39680145 70.08762772 25.73500916 71.03463043 26.08346558 72.0103302 C27.04214932 74.67870377 28.01896513 77.33977466 29 80 C29.32791534 80.92131714 29.65583069 81.84263428 29.99368286 82.79187012 C30.32455902 83.68265259 30.65543518 84.57343506 30.99633789 85.49121094 C31.43025597 86.68420807 31.43025597 86.68420807 31.87294006 87.90130615 C33.233817 90.43538971 34.54138422 91.52986427 37 93 C40.65274469 93.72481084 40.65274469 93.72481084 44 94 C44 95.32 44 96.64 44 98 C32.12 98 20.24 98 8 98 C8 96.68 8 95.36 8 94 C10.05078125 93.77213542 12.1015625 93.54427083 14.15234375 93.31640625 C16.01140229 93.18113386 16.01140229 93.18113386 17 92 C16.61295254 84.96981062 14.87091953 79.00822788 12.4375 72.4375 C11.303125 69.323125 10.16875 66.20875 9 63 C-1.56 63 -12.12 63 -23 63 C-27.74284505 77.18200609 -27.74284505 77.18200609 -28 92 C-26.33657163 93.66342837 -24.2174291 93.36048097 -21.9375 93.5625 C-20.55884766 93.68818359 -20.55884766 93.68818359 -19.15234375 93.81640625 C-18.44207031 93.87699219 -17.73179687 93.93757813 -17 94 C-17 95.32 -17 96.64 -17 98 C-27.89 98 -38.78 98 -50 98 C-50 96.68 -50 95.36 -50 94 C-49.38511719 93.82984375 -48.77023437 93.6596875 -48.13671875 93.484375 C-47.32847656 93.24203125 -46.52023437 92.9996875 -45.6875 92.75 C-44.88699219 92.51796875 -44.08648438 92.2859375 -43.26171875 92.046875 C-39.83686756 90.46162436 -38.45617457 88.04250698 -36.96502686 84.63475037 C-36.65526917 83.7594014 -36.34551147 82.88405243 -36.02636719 81.98217773 C-35.66879333 80.98270615 -35.31121948 79.98323456 -34.94281006 78.95347595 C-34.56465149 77.87441483 -34.18649292 76.7953537 -33.796875 75.68359375 C-33.3959967 74.55792496 -32.99511841 73.43225616 -32.58209229 72.2724762 C-31.29817224 68.6631059 -30.0237991 65.05045306 -28.75 61.4375 C-27.49234382 57.88978693 -26.23272253 54.3427786 -24.97229004 50.79605103 C-24.14894878 48.47653201 -23.32789223 46.15620071 -22.50915527 43.83505249 C-20.68248543 38.66735325 -18.83339727 33.51460556 -16.86523438 28.39892578 C-16.5400885 27.54774673 -16.21494263 26.69656769 -15.87994385 25.81959534 C-15.29087056 24.28818905 -14.6921271 22.76044089 -14.08050537 21.23789978 C-12.26709053 16.51316342 -11.56657551 12.17446276 -11.2850647 7.11880493 C-11 5 -11 5 -9.2578125 2.67578125 C-8.20207031 2.00095703 -8.20207031 2.00095703 -7.125 1.3125 C-6.42632813 0.83425781 -5.72765625 0.35601562 -5.0078125 -0.13671875 C-3 -1 -3 -1 0 0 Z " fill="#B09B84" transform="translate(803,167)"/>
<path d="M0 0 C22.11 0 44.22 0 67 0 C67 6.93 67 13.86 67 21 C66.01 21 65.02 21 64 21 C63.82984375 20.39671875 63.6596875 19.7934375 63.484375 19.171875 C61.5901807 12.71472601 61.5901807 12.71472601 57 8 C50.43822488 5.01465419 44.6539817 4.47806174 37.5 4.3125 C34.035 4.209375 30.57 4.10625 27 4 C27 16.87 27 29.74 27 43 C40.7280462 43.59498431 40.7280462 43.59498431 53.8125 38.1875 C55.11807069 35.78250136 55.62499717 33.7000204 56 31 C56.99 31 57.98 31 59 31 C59 41.23 59 51.46 59 62 C58.01 62 57.02 62 56 62 C55.89042969 61.30132812 55.78085937 60.60265625 55.66796875 59.8828125 C55.50941406 58.97273438 55.35085938 58.06265625 55.1875 57.125 C55.03667969 56.22007812 54.88585937 55.31515625 54.73046875 54.3828125 C54.16948699 51.65587522 54.16948699 51.65587522 51 50 C48.38710506 49.63250611 48.38710506 49.63250611 45.45703125 49.5859375 C44.38388672 49.54726562 43.31074219 49.50859375 42.20507812 49.46875 C41.08552734 49.4378125 39.96597656 49.406875 38.8125 49.375 C37.68134766 49.33632812 36.55019531 49.29765625 35.38476562 49.2578125 C32.5900075 49.16347467 29.79525722 49.07788348 27 49 C27.09380557 53.75090911 27.19995867 58.50132484 27.31738281 63.25170898 C27.35558072 64.8665417 27.39044945 66.48145684 27.421875 68.09643555 C27.46772609 70.42266217 27.52568584 72.74832592 27.5859375 75.07421875 C27.59748871 75.79212082 27.60903992 76.51002289 27.62094116 77.24967957 C27.7372492 81.23200665 28.13144085 84.45268645 30 88 C37.22730573 92.68567955 51.38973447 90.96264009 59.4609375 89.27734375 C65.0220059 87.21490547 68.30091174 84.5614077 70.89453125 79.125 C71.64050859 77.43548054 72.32572789 75.71939388 73 74 C74.98 74.495 74.98 74.495 77 75 C75.35 81.6 73.7 88.2 72 95 C48.24 95 24.48 95 0 95 C0 93.68 0 92.36 0 91 C0.69867187 90.90203125 1.39734375 90.8040625 2.1171875 90.703125 C3.02726563 90.55359375 3.93734375 90.4040625 4.875 90.25 C6.23238281 90.04117188 6.23238281 90.04117188 7.6171875 89.828125 C10.06186369 89.23529659 10.06186369 89.23529659 11.13374329 87.41641235 C12.31721813 84.11512396 12.27060646 80.9703175 12.24291992 77.50927734 C12.24481827 76.76088089 12.24671661 76.01248444 12.24867249 75.2414093 C12.25237104 72.77281145 12.24169073 70.30450911 12.23046875 67.8359375 C12.2292765 66.12008702 12.22882388 64.40423588 12.2290802 62.68838501 C12.22751702 59.09560042 12.2192387 55.50291572 12.20581055 51.91015625 C12.18879537 47.29863493 12.18499704 42.68722309 12.18575573 38.07567406 C12.18548423 34.53444366 12.18000662 30.99323733 12.17275429 27.45201492 C12.1695667 25.75110684 12.1676 24.05019603 12.16686058 22.34928513 C12.16469942 19.97678703 12.15596082 17.60440654 12.14526367 15.23193359 C12.14571686 14.52540146 12.14617004 13.81886932 12.14663696 13.09092712 C12.16883578 9.42195682 12.16883578 9.42195682 11 6 C8.42048126 5.30906104 8.42048126 5.30906104 5.4375 4.875 C4.42558594 4.70742187 3.41367187 4.53984375 2.37109375 4.3671875 C1.58863281 4.24601563 0.80617188 4.12484375 0 4 C0 2.68 0 1.36 0 0 Z " fill="#B29D86" transform="translate(552,170)"/>
<path d="M0 0 C22.11 0 44.22 0 67 0 C67.76106485 4.56638911 68.10902312 8.31573454 68.0625 12.875 C68.05347656 14.02742187 68.04445313 15.17984375 68.03515625 16.3671875 C68.02355469 17.23601562 68.01195312 18.10484375 68 19 C66.68 19 65.36 19 64 19 C63.82984375 18.38511719 63.6596875 17.77023438 63.484375 17.13671875 C62.06839055 12.24861928 62.06839055 12.24861928 59.3125 8.0625 C52.31074118 4.84547568 45.07335602 4.61436161 37.5 4.375 C34.035 4.25125 30.57 4.1275 27 4 C27 16.87 27 29.74 27 43 C32.56875 42.7834375 32.56875 42.7834375 38.25 42.5625 C39.4143457 42.51939697 40.57869141 42.47629395 41.77832031 42.43188477 C42.70225586 42.39377686 43.62619141 42.35566895 44.578125 42.31640625 C45.52075195 42.27974854 46.46337891 42.24309082 47.43457031 42.20532227 C50.26886213 42.04920997 50.26886213 42.04920997 54 41 C54.66 38.03 55.32 35.06 56 32 C56.99 32 57.98 32 59 32 C59 41.57 59 51.14 59 61 C58.34 61 57.68 61 57 61 C56.81824219 60.37351563 56.63648438 59.74703125 56.44921875 59.1015625 C56.19785156 58.28429687 55.94648438 57.46703125 55.6875 56.625 C55.44386719 55.81289062 55.20023438 55.00078125 54.94921875 54.1640625 C54.08631815 51.66815371 54.08631815 51.66815371 51 50 C48.38710506 49.63250611 48.38710506 49.63250611 45.45703125 49.5859375 C44.38388672 49.54726562 43.31074219 49.50859375 42.20507812 49.46875 C41.08552734 49.4378125 39.96597656 49.406875 38.8125 49.375 C37.68134766 49.33632812 36.55019531 49.29765625 35.38476562 49.2578125 C32.5900075 49.16347467 29.79525722 49.07788348 27 49 C27.11837405 54.19627839 27.24263118 59.39237044 27.37231445 64.58837891 C27.41559514 66.35559272 27.45727505 68.1228465 27.49731445 69.89013672 C27.55518351 72.4320886 27.61882981 74.97384059 27.68359375 77.515625 C27.70030624 78.30430969 27.71701874 79.09299438 27.73423767 79.90557861 C27.83040294 83.47571118 28.12848515 86.51394061 29 90 C32.3 90.33 35.6 90.66 39 91 C39 92.32 39 93.64 39 95 C26.13 95 13.26 95 0 95 C0 93.68 0 92.36 0 91 C5.445 90.505 5.445 90.505 11 90 C12.1908034 86.42758981 12.15538524 83.17352355 12.16113281 79.45507812 C12.16609772 78.68892685 12.17106262 77.92277557 12.17617798 77.13340759 C12.19078206 74.59934594 12.19759747 72.06534682 12.203125 69.53125 C12.2088764 67.77152504 12.21463414 66.01180011 12.22039795 64.2520752 C12.2309019 60.56339221 12.23674903 56.87473099 12.24023438 53.18603516 C12.24572819 48.4545381 12.26977754 43.7233275 12.29820633 38.99192047 C12.31680553 35.35800324 12.32203678 31.72415552 12.32357025 28.0901947 C12.32660176 26.34543791 12.334647 24.60068248 12.34775543 22.85597229 C12.36476494 20.41873145 12.36294886 17.98219758 12.35644531 15.54492188 C12.37026749 14.4601078 12.37026749 14.4601078 12.3843689 13.3533783 C12.35990209 10.43401927 12.34230097 8.48077967 10.61907959 6.0604248 C8.49442087 4.66886826 6.83384943 4.49520648 4.3125 4.3125 C3.10013672 4.21388672 3.10013672 4.21388672 1.86328125 4.11328125 C1.24839844 4.07589844 0.63351563 4.03851563 0 4 C0 2.68 0 1.36 0 0 Z " fill="#B19C85" transform="translate(135,170)"/>
<path d="M0 0 C2.86724686 0.57344937 3.8614515 0.8614515 6 3 C9.08909451 3.31508659 9.08909451 3.31508659 12.77294922 3.2746582 C13.46907318 3.27976913 14.16519714 3.28488007 14.88241577 3.29014587 C17.1899265 3.30407674 19.49713965 3.30308227 21.8046875 3.30078125 C23.40650545 3.30466683 25.00832237 3.30900121 26.61013794 3.31376648 C29.97108292 3.3212366 33.33192289 3.32093213 36.69287109 3.31567383 C40.99948004 3.30988401 45.30565824 3.32679426 49.61219597 3.3500185 C52.92191074 3.36475451 56.23152182 3.36562764 59.54126358 3.36250877 C61.12888567 3.36302225 62.71651352 3.36826497 64.30410385 3.37832069 C66.52577366 3.39066292 68.74660524 3.38390707 70.96826172 3.37231445 C72.23241913 3.37294388 73.49657654 3.3735733 74.79904175 3.3742218 C78.25518393 2.97016662 79.40863826 2.18919148 82 0 C82.99 0 83.98 0 85 0 C84.67 7.26 84.34 14.52 84 22 C82.68 22 81.36 22 80 22 C79.83723958 20.01432292 79.67447917 18.02864583 79.51171875 16.04296875 C78.8558598 13.42453952 78.1543995 12.63054025 76 11 C73.09912345 10.49335383 73.09912345 10.49335383 69.80078125 10.48828125 C67.98803711 10.43510742 67.98803711 10.43510742 66.13867188 10.38085938 C64.87603516 10.35830078 63.61339844 10.33574219 62.3125 10.3125 C60.40114258 10.26125977 60.40114258 10.26125977 58.45117188 10.20898438 C55.30086897 10.12639216 52.15084843 10.05727665 49 10 C49.06115486 20.50944975 49.13822016 31.01865 49.23571491 41.52782917 C49.28048122 46.40745207 49.3197234 51.28699027 49.34643555 56.16674805 C49.37240624 60.87421576 49.41276402 65.58135861 49.46318626 70.28862572 C49.47989729 72.08635613 49.49138512 73.88414279 49.49761391 75.68194008 C49.50720918 78.19626717 49.5352123 80.70975514 49.56762695 83.22387695 C49.56619186 83.97050095 49.56475677 84.71712494 49.5632782 85.4863739 C49.62729322 89.47593035 49.62729322 89.47593035 51.39933777 92.95402527 C53.3777868 94.24686998 54.84065167 94.49513538 57.1875 94.6875 C58.445625 94.790625 59.70375 94.89375 61 95 C61 96.32 61 97.64 61 99 C48.46 99 35.92 99 23 99 C23 97.68 23 96.36 23 95 C24.98567708 94.86979167 26.97135417 94.73958333 28.95703125 94.609375 C31.87113216 93.74015943 32.49272687 92.6382005 34 90 C34.30322616 87.32451739 34.4376067 84.87781479 34.43237305 82.20214844 C34.4425647 81.42127869 34.45275635 80.64040894 34.46325684 79.83587646 C34.49339982 77.26030312 34.50265461 74.68510161 34.51171875 72.109375 C34.5285645 70.32145958 34.5467146 68.53355601 34.56611633 66.7456665 C34.61363387 62.04394229 34.64343186 57.34226613 34.66955566 52.64038086 C34.69935234 47.84088654 34.74588574 43.0415578 34.79101562 38.2421875 C34.87706868 28.82821158 34.94440507 19.41420161 35 10 C30.76964284 10.02282808 26.54197881 10.10017884 22.3125 10.1875 C20.51522461 10.19620117 20.51522461 10.19620117 18.68164062 10.20507812 C11.63853487 10.10905072 11.63853487 10.10905072 5.71875 13.34375 C3.80264413 16.30500453 3.24411961 18.50095224 3 22 C1.68 22 0.36 22 -1 22 C-1.09377123 14.58165418 -1.17402193 7.33763707 0 0 Z " fill="#B19C86" transform="translate(450,166)"/>
<path d="M0 0 C5.6492346 2.0473166 8.87338035 4.28353066 12.16015625 9.31640625 C14.89993671 15.18458852 15.2385323 21.33050997 13.54296875 27.59765625 C10.71875618 34.09584447 5.53165431 37.70395065 -0.71484375 40.69140625 C-6.0927087 41.76697924 -11.60427707 42.06159514 -16.83984375 40.31640625 C-16.83984375 27.11640625 -16.83984375 13.91640625 -16.83984375 0.31640625 C-11.96555555 -2.12073785 -5.14712553 -1.2389917 0 0 Z " fill="#FCFBFB" transform="translate(688.83984375,174.68359375)"/>
<path d="M0 0 C5.6492346 2.0473166 8.87338035 4.28353066 12.16015625 9.31640625 C14.89993671 15.18458852 15.2385323 21.33050997 13.54296875 27.59765625 C10.71875618 34.09584447 5.53165431 37.70395065 -0.71484375 40.69140625 C-6.0927087 41.76697924 -11.60427707 42.06159514 -16.83984375 40.31640625 C-16.83984375 27.11640625 -16.83984375 13.91640625 -16.83984375 0.31640625 C-11.96555555 -2.12073785 -5.14712553 -1.2389917 0 0 Z " fill="#FCFBFB" transform="translate(388.83984375,174.68359375)"/>
<path d="M0 0 C3.62330073 1.30550527 6.28743796 3.24146622 8.9375 6.0625 C10.91871876 11.53998715 11.00138893 17.52288001 8.8125 22.9375 C4.94377756 27.33983933 1.65857611 29.74436768 -4.25 30.3125 C-8.62605773 29.94782852 -11.72719175 28.89206076 -15 26 C-18.43589266 21.34133377 -19.84294428 16.79524192 -19 11 C-15.74460016 2.33112626 -9.12408188 -1.57092888 0 0 Z " fill="#FDFDFD" transform="translate(455,331)"/>
<path d="M0 0 C2.83563327 2.83563327 3.72103977 6.29242836 5.0390625 10 C5.32478119 10.79148438 5.61049988 11.58296875 5.90487671 12.3984375 C6.50763555 14.07194962 7.10763285 15.74645858 7.70507812 17.421875 C8.62216653 19.99205907 9.54864359 22.55870889 10.4765625 25.125 C11.06045472 26.74979927 11.64380647 28.37479288 12.2265625 30 C12.50464752 30.77085937 12.78273254 31.54171875 13.06924438 32.3359375 C15 37.76837579 15 37.76837579 15 40 C5.76 40 -3.48 40 -13 40 C-9.62120189 26.48480756 -9.62120189 26.48480756 -7.7734375 20.95703125 C-7.3815625 19.78205078 -6.9896875 18.60707031 -6.5859375 17.39648438 C-5.98652344 15.62241211 -5.98652344 15.62241211 -5.375 13.8125 C-4.96765625 12.58724609 -4.5603125 11.36199219 -4.140625 10.09960938 C-1.13375235 1.13375235 -1.13375235 1.13375235 0 0 Z " fill="#FBFAF9" transform="translate(795,184)"/>
<path d="M0 0 C2.10908815 2.65715137 3.66687232 5.18009655 5.0078125 8.29296875 C5.35457031 9.08767578 5.70132812 9.88238281 6.05859375 10.70117188 C6.41050781 11.52166016 6.76242187 12.34214844 7.125 13.1875 C7.83392905 14.82769248 8.54476524 16.4670624 9.2578125 18.10546875 C9.5686377 18.82887451 9.87946289 19.55228027 10.19970703 20.29760742 C10.87858385 21.99161599 10.87858385 21.99161599 12 23 C15.3 15.74 18.6 8.48 22 1 C24.09811492 4.14717239 24.38964495 5.58742336 24.81640625 9.25390625 C24.94080078 10.27291016 25.06519531 11.29191406 25.19335938 12.34179688 C25.31517578 13.40462891 25.43699219 14.46746094 25.5625 15.5625 C25.81062083 17.66834602 26.06177164 19.77383794 26.31640625 21.87890625 C26.42412354 22.8129126 26.53184082 23.74691895 26.64282227 24.70922852 C26.88460729 27.02261474 26.88460729 27.02261474 28 29 C26.02 29 24.04 29 22 29 C21.67 22.07 21.34 15.14 21 8 C18.03 14.93 15.06 21.86 12 29 C9.51788863 26.51788863 8.53029573 25.41593586 7.17578125 22.42578125 C6.86962891 21.75869141 6.56347656 21.09160156 6.24804688 20.40429688 C5.93931641 19.71400391 5.63058594 19.02371094 5.3125 18.3125 C4.83200195 17.2596582 4.83200195 17.2596582 4.34179688 16.18554688 C3.55520853 14.45974857 2.77679403 12.7302289 2 11 C-0.11925604 13.11925604 0.58168983 17.6196093 0.4375 20.5625 C0.39431641 21.36880859 0.35113281 22.17511719 0.30664062 23.00585938 C0.20024738 25.00368805 0.09959112 27.0018207 0 29 C-1.98 29 -3.96 29 -6 29 C-5.34 28.34 -4.68 27.68 -4 27 C-3.4591199 24.5343188 -3.4591199 24.5343188 -3.18359375 21.66015625 C-3.05919922 20.59732422 -2.93480469 19.53449219 -2.80664062 18.43945312 C-2.68482422 17.32505859 -2.56300781 16.21066406 -2.4375 15.0625 C-2.18886447 12.86558199 -1.93767749 10.66895081 -1.68359375 8.47265625 C-1.57587646 7.49562744 -1.46815918 6.51859863 -1.35717773 5.51196289 C-1 3 -1 3 0 0 Z " fill="#BAA894" transform="translate(487,331)"/>
<path d="M0 0 C1.65 0 3.3 0 5 0 C4.67 4.29 4.34 8.58 4 13 C9.28 13 14.56 13 20 13 C19.505 6.565 19.505 6.565 19 0 C20.65 0 22.3 0 24 0 C23.99476318 0.77714355 23.98952637 1.55428711 23.98413086 2.35498047 C23.96339844 5.86164549 23.95035179 9.36829763 23.9375 12.875 C23.92912109 14.09832031 23.92074219 15.32164062 23.91210938 16.58203125 C23.90888672 17.74863281 23.90566406 18.91523438 23.90234375 20.1171875 C23.89710693 21.19597168 23.89187012 22.27475586 23.88647461 23.38623047 C23.82116894 25.98232186 23.82116894 25.98232186 25 28 C22.69 28 20.38 28 18 28 C18.66 27.67 19.32 27.34 20 27 C20 23.04 20 19.08 20 15 C14.72 15 9.44 15 4 15 C4 18.96 4 22.92 4 27 C4.66 27.33 5.32 27.66 6 28 C3.36 28 0.72 28 -2 28 C-1.34 27.34 -0.68 26.68 0 26 C0.27844932 23.28065665 0.27844932 23.28065665 0.1953125 20.1171875 C0.18886719 18.95058594 0.18242187 17.78398437 0.17578125 16.58203125 C0.15902344 15.35871094 0.14226562 14.13539063 0.125 12.875 C0.11146484 11.02841797 0.11146484 11.02841797 0.09765625 9.14453125 C0.07402548 6.09616185 0.04108054 3.04817618 0 0 Z " fill="#BCAA97" transform="translate(393,332)"/>
<path d="M0 0 C3.62330073 1.30550527 6.28743796 3.24146622 8.9375 6.0625 C10.91871876 11.53998715 11.00138893 17.52288001 8.8125 22.9375 C4.94377756 27.33983933 1.65857611 29.74436768 -4.25 30.3125 C-8.62605773 29.94782852 -11.72719175 28.89206076 -15 26 C-18.43589266 21.34133377 -19.84294428 16.79524192 -19 11 C-15.74460016 2.33112626 -9.12408188 -1.57092888 0 0 Z M-12.0625 4.375 C-15.91453682 9.59388859 -15.82424597 14.65653836 -15 21 C-13.59821503 24.21554492 -12.01207954 26.18660517 -9 28 C-5.81825306 28.79822774 -3.18746563 28.75275941 0 28 C3.33600367 25.94161475 4.8262176 24.2606736 7 21 C7.65769575 15.70019589 8.15001954 9.9403284 5.125 5.3125 C2.8879197 2.87803026 2.02033497 2.12641318 -1.20703125 1.7265625 C-7.07233922 1.46262226 -7.07233922 1.46262226 -12.0625 4.375 Z " fill="#BDAB98" transform="translate(455,331)"/>
<path d="M0 0 C0 0.99 0 1.98 0 3 C-2.97 2.67 -5.94 2.34 -9 2 C-9 5.96 -9 9.92 -9 14 C-6.36 14 -3.72 14 -1 14 C-0.67 13.34 -0.34 12.68 0 12 C0 13.98 0 15.96 0 18 C-0.33 17.34 -0.66 16.68 -1 16 C-3.64 16 -6.28 16 -9 16 C-9 19.63 -9 23.26 -9 27 C-5.7 27 -2.4 27 1 27 C1.33 26.01 1.66 25.02 2 24 C2.33 24.99 2.66 25.98 3 27 C2.67 27.66 2.34 28.32 2 29 C-3.61 29 -9.22 29 -15 29 C-14.34 28.34 -13.68 27.68 -13 27 C-12.72155068 24.28065665 -12.72155068 24.28065665 -12.8046875 21.1171875 C-12.81113281 19.95058594 -12.81757812 18.78398437 -12.82421875 17.58203125 C-12.84097656 16.35871094 -12.85773437 15.13539063 -12.875 13.875 C-12.88853516 12.02841797 -12.88853516 12.02841797 -12.90234375 10.14453125 C-12.92597367 7.09627194 -12.96184561 4.04811211 -13 1 C-6.565 0.505 -6.565 0.505 0 0 Z " fill="#BEAD9A" transform="translate(548,331)"/>
<path d="M0 0 C0 1.65 0 3.3 0 5 C-0.66 4.34 -1.32 3.68 -2 3 C-5.08347826 2.83318891 -5.08347826 2.83318891 -8 3 C-8.95020416 5.239835 -8.95020416 5.239835 -9 8 C-6.85554017 10.56272118 -6.85554017 10.56272118 -4 13 C-0.87458551 16.02432292 0.89560274 18.23007022 1.5 22.6875 C0.96791006 26.21259583 0.75326304 26.9457837 -2 29 C-4.19140625 29.328125 -4.19140625 29.328125 -6.5625 29.25 C-7.74005859 29.22679687 -7.74005859 29.22679687 -8.94140625 29.203125 C-11 29 -11 29 -13 28 C-13 26.02 -13 24.04 -13 22 C-11 25 -11 25 -10 27 C-7.36 27 -4.72 27 -2 27 C-1.46512604 24.14733891 -1.21901202 22.73859599 -2 20 C-4.1460272 17.6282993 -6.43336025 15.69079755 -8.93359375 13.69921875 C-11.61401831 11.49508891 -11.93672206 10.58215702 -12.3125 7.125 C-12 4 -12 4 -10.5 1.625 C-6.86748926 -0.73613198 -4.28156703 -0.2854378 0 0 Z " fill="#B5A18C" transform="translate(582,331)"/>
<path d="M0 0 C1.65 0 3.3 0 5 0 C4.99214478 1.16571533 4.99214478 1.16571533 4.98413086 2.35498047 C4.96339844 5.86164549 4.95035179 9.36829763 4.9375 12.875 C4.92912109 14.09832031 4.92074219 15.32164062 4.91210938 16.58203125 C4.90888672 17.74863281 4.90566406 18.91523438 4.90234375 20.1171875 C4.89710693 21.19597168 4.89187012 22.27475586 4.88647461 23.38623047 C4.82116894 25.98232186 4.82116894 25.98232186 6 28 C3.69 28 1.38 28 -1 28 C-0.34 27.67 0.32 27.34 1 27 C0.67 18.09 0.34 9.18 0 0 Z " fill="#B8A590" transform="translate(412,332)"/>
<path d="M0 0 C2.93307315 0.87199472 4.70723066 1.68703967 6.8125 3.9375 C8.97017645 9.50203402 9.0081687 15.52998667 6.75 21.0625 C4.94401245 23.06198622 3.50696229 24.04908327 1 25 C2.875 20.125 2.875 20.125 4 19 C4.71974571 11.51936425 4.46223951 6.13557932 0 0 Z " fill="#B39F89" transform="translate(457,333)"/>
<path d="M0 0 C0.66 0 1.32 0 2 0 C3.50522164 4.51566491 3.75166607 9.21302822 4.25 13.92773438 C4.62987082 18.09435318 4.62987082 18.09435318 6 22 C4.02 22 2.04 22 0 22 C0 14.74 0 7.48 0 0 Z " fill="#B4A08A" transform="translate(509,338)"/>
<path d="M0 0 C1.65 0 3.3 0 5 0 C4.67 0.99 4.34 1.98 4 3 C3.85222064 4.69867188 3.75252934 6.40177489 3.68359375 8.10546875 C3.64169922 9.08837891 3.59980469 10.07128906 3.55664062 11.08398438 C3.51732422 12.10814453 3.47800781 13.13230469 3.4375 14.1875 C3.39431641 15.22326172 3.35113281 16.25902344 3.30664062 17.32617188 C3.20055634 19.8839819 3.09849854 22.44188845 3 25 C2.67 25 2.34 25 2 25 C1.34 16.75 0.68 8.5 0 0 Z " fill="#B39F89" transform="translate(412,332)"/>
<path d="M0 0 C3 1 3 1 5 4 C5.66 3.67 6.32 3.34 7 3 C6.34 5.31 5.68 7.62 5 10 C2.66063182 7.87330165 1.19346152 5.93775144 0 3 C0 2.01 0 1.02 0 0 Z " fill="#B4A08A" transform="translate(494,350)"/>
<path d="M0 0 C0.33 0 0.66 0 1 0 C1.33 3.96 1.66 7.92 2 12 C0.02 12 -1.96 12 -4 12 C-3.34 11.34 -2.68 10.68 -2 10 C-1.32059533 7.57284794 -1.32059533 7.57284794 -0.875 4.875 C-0.70742188 3.96492188 -0.53984375 3.05484375 -0.3671875 2.1171875 C-0.24601562 1.41851562 -0.12484375 0.71984375 0 0 Z " fill="#B6A28D" transform="translate(485,348)"/>
<path d="M0 0 C0 1.65 0 3.3 0 5 C-0.66 4.34 -1.32 3.68 -2 3 C-5.58343976 2.83322718 -5.58343976 2.83322718 -9 3 C-9.33 2.34 -9.66 1.68 -10 1 C-6.78548731 -0.60725635 -3.56387464 -0.05748185 0 0 Z " fill="#C8B9A9" transform="translate(582,331)"/>
</svg>
